<?xml version="1.0" encoding="UTF-8" standalone="no"?>
<!-- Created with Inkscape (http://www.inkscape.org/) -->
<svg xmlns:svg="http://www.w3.org/2000/svg" xmlns="http://www.w3.org/2000/svg" version="1.0" width="900" height="600" id="svg2">
  <defs id="defs5"/>
  <rect width="900" height="600" ry="2.7489901" x="0" y="0" id="rect3255" style="opacity:1;fill:#002490;fill-opacity:1;fill-rule:nonzero;stroke:none;stroke-width:0.16539913;stroke-linecap:round;stroke-linejoin:bevel;stroke-miterlimit:4;stroke-dasharray:none;stroke-dashoffset:0;stroke-opacity:1"/>
  <g transform="matrix(1.03455, 0, 0, 1.03455, 100.2, -364.248)" id="g4249" style="fill:#ffffff">
    <g transform="matrix(1.25, 0, 0, -1.25, 142.99, 497.075)" id="g2446" style="fill:#ffffff">
      <path d="M 0,0 C 0,0 105.822,-70.791 232.652,-67.639 C 232.652,-67.639 328.061,-68.361 279.287,-3.43 C 279.287,-3.43 324.896,-33.308 300.623,-61.758 C 300.623,-61.758 287.822,-77.854 254.984,-78.18 C 254.984,-78.18 119.77,-87.761 0,0" id="path2448" style="fill:#ffffff;fill-opacity:1;fill-rule:nonzero;stroke:none"/>
    </g>
    <g transform="matrix(1.25, 0, 0, -1.25, 137.782, 589.567)" id="g2450" style="fill:#ffffff">
      <path d="M 0,0 C 0,0 117.535,-78.624 258.399,-75.122 C 258.399,-75.122 364.364,-75.927 310.195,-3.809 C 310.195,-3.809 360.852,-36.994 333.893,-68.591 C 333.893,-68.591 319.674,-86.467 283.203,-86.829 C 283.203,-86.829 133.024,-97.472 0,0" id="path2452" style="fill:#ffffff;fill-opacity:1;fill-rule:nonzero;stroke:none"/>
    </g>
    <g transform="matrix(1.25, 0, 0, -1.25, 167.48, 650.881)" id="g2454" style="fill:#ffffff">
      <path d="M 0,0 C 0,0 95.632,-63.973 210.249,-61.124 C 210.249,-61.124 296.469,-61.779 252.395,-3.099 C 252.395,-3.099 293.61,-30.101 271.675,-55.81 C 271.675,-55.81 260.105,-70.354 230.431,-70.65 C 230.431,-70.65 108.235,-79.309 0,0" id="path2456" style="fill:#ffffff;fill-opacity:1;fill-rule:nonzero;stroke:none"/>
    </g>
    <g transform="matrix(1.25, 0, 0, -1.25, 222.787, 707.021)" id="g2458" style="fill:#ffffff">
      <path d="M 0,0 C 0,0 63.708,-42.618 140.063,-40.72 C 140.063,-40.72 197.5,-41.157 168.137,-2.065 C 168.137,-2.065 195.595,-20.052 180.982,-37.18 C 180.982,-37.18 173.276,-46.868 153.508,-47.065 C 153.508,-47.065 72.103,-52.834 0,0" id="path2460" style="fill:#ffffff;fill-opacity:1;fill-rule:nonzero;stroke:none"/>
    </g>
    <g transform="matrix(1.25, 0, 0, -1.25, 68.9735, 518.419)" id="g2462" style="fill:#ffffff">
      <path d="M 0,0 C 0,0 148.081,-99.058 325.56,-94.646 C 325.56,-94.646 459.065,-95.66 390.818,-4.798 C 390.818,-4.798 454.641,-46.609 420.672,-86.418 C 420.672,-86.418 402.76,-108.941 356.811,-109.398 C 356.811,-109.398 167.597,-122.804 0,0" id="path2464" style="fill:#ffffff;fill-opacity:1;fill-rule:nonzero;stroke:none"/>
    </g>
    <g transform="matrix(1.25, 0, 0, -1.25, 344.363, 783.83)" id="g2466" style="fill:#ffffff">
      <path d="M 0,0 C -0.47,-2.74 -9.097,-3.403 -19.268,-1.482 C -29.438,0.441 -37.306,4.221 -36.835,6.963 C -36.366,9.703 -27.739,10.365 -17.567,8.444 C -7.396,6.521 0.471,2.742 0,0" id="path2468" style="fill:#ffffff;fill-opacity:1;fill-rule:nonzero;stroke:none"/>
    </g>
  </g>
</svg>