<?xml version="1.0" encoding="utf-8"?>
<!-- Generator: Adobe Illustrator 15.0.0, SVG Export Plug-In . SVG Version: 6.00 Build 0)  -->
<!DOCTYPE svg PUBLIC "-//W3C//DTD SVG 1.1//EN" "http://www.w3.org/Graphics/SVG/1.1/DTD/svg11.dtd">
<svg version="1.1" xmlns="http://www.w3.org/2000/svg" xmlns:xlink="http://www.w3.org/1999/xlink" x="0px" y="0px"
	 width="494.667px" height="265.667px" viewBox="0 0 494.667 265.667" enable-background="new 0 0 494.667 265.667"
	 xml:space="preserve">
<g id="Layer_21">
</g>
<g id="outline">
	<g>
		<polygon fill="none" stroke="#000000" stroke-width="1.5" stroke-miterlimit="10" points="211.585,35.875 207.8,35.795 
			206.997,36.885 204.847,36.835 204.847,38.855 212.437,39.942 216.981,37.733 216.981,37.111 214.726,34.829 		"/>
		<polygon fill="none" stroke="#000000" stroke-width="1.5" stroke-miterlimit="10" points="250.413,87.263 252.849,87.891 
			252.864,85.747 250.428,85.683 		"/>
		<polygon fill="none" stroke="#000000" stroke-width="1.5" stroke-miterlimit="10" points="214.968,16.831 220.296,15.741 
			222.175,13.851 206.808,12.305 193.532,13.851 177.45,13.851 168.18,17.072 160.771,19.327 160.771,21.587 172.046,21.748 
			174.945,26.735 174.945,31.245 169.526,34.318 169.688,40.438 173.087,43.875 177.114,43.875 183.249,37.386 191.918,34.829 
			195.17,32.34 201.73,31.935 206.325,30.58 		"/>
		<polygon fill="none" stroke="#000000" stroke-width="1.5" stroke-miterlimit="10" points="421.097,105.01 418.947,108.07 
			421.097,110.083 422.41,106.378 		"/>
		<polygon fill="none" stroke="#000000" stroke-width="1.5" stroke-miterlimit="10" points="403.005,116.525 404.052,117.787 
			405.582,115.881 405.582,114.432 403.005,114.995 		"/>
		<polygon fill="none" stroke="#000000" stroke-width="1.5" stroke-miterlimit="10" points="438.436,76.502 439.361,75.254 
			442.301,75.214 443.549,73.08 437.025,70.342 437.146,75.737 		"/>
		<polygon fill="none" stroke="#000000" stroke-width="1.5" stroke-miterlimit="10" points="437.726,90.93 439.197,90.306 
			439.361,88.34 443.697,87.225 443.474,81.552 441.495,78.113 439.535,77.545 440.662,82.699 436.65,86.336 431.245,87.728 
			430.765,89.387 437.234,88.432 		"/>
		<polygon fill="none" stroke="#000000" stroke-width="1.5" stroke-miterlimit="10" points="430.101,90.93 432.355,94.42 
			433.201,91.763 432.436,90.635 		"/>
		<polygon fill="none" stroke="#000000" stroke-width="1.5" stroke-miterlimit="10" points="433.725,90.192 435.214,91.883 
			436.342,89.83 		"/>
		<polygon fill="none" stroke="#000000" stroke-width="1.5" stroke-miterlimit="10" points="428.714,126.519 429.255,124.873 
			425.712,124.498 424.423,122.887 425.712,119.934 424.426,117.086 422.088,117.035 421.524,122.045 424.826,126.028 		"/>
		<polygon fill="none" stroke="#000000" stroke-width="1.5" stroke-miterlimit="10" points="419.649,134.049 422.44,131.731 
			422.375,129.829 418.079,133.737 		"/>
		<polygon fill="none" stroke="#000000" stroke-width="1.5" stroke-miterlimit="10" points="432.154,131.946 430.974,135.029 
			427.108,135.029 430.329,137.328 430.329,139.557 432.66,138.862 431.872,137.422 433.752,136.936 		"/>
		<polygon fill="none" stroke="#000000" stroke-width="1.5" stroke-miterlimit="10" points="425.12,127.826 423.457,126.201 
			423.243,127.516 424.584,128.833 		"/>
		<polygon fill="none" stroke="#000000" stroke-width="1.5" stroke-miterlimit="10" points="427.592,129.039 425.873,128.833 
			425.12,130.188 426.303,130.994 		"/>
		<polygon fill="none" stroke="#000000" stroke-width="1.5" stroke-miterlimit="10" points="432.906,130.242 431.215,127.518 
			429.524,128.148 431.135,130.242 		"/>
		<polygon fill="none" stroke="#000000" stroke-width="1.5" stroke-miterlimit="10" points="428.422,130.539 429.697,132.471 
			430.43,131.503 429.524,129.913 		"/>
		<polygon fill="none" stroke="#000000" stroke-width="1.5" stroke-miterlimit="10" points="428.422,132.767 427.592,131.519 
			426.638,132.607 427.592,133.773 		"/>
		<polygon fill="none" stroke="#000000" stroke-width="1.5" stroke-miterlimit="10" points="400.587,154.615 387.702,141.248 
			383.288,139.557 398.216,159.89 400.587,157.917 		"/>
		<polygon fill="none" stroke="#000000" stroke-width="1.5" stroke-miterlimit="10" points="409.848,160.978 406.224,161.782 
			402.197,160.252 399.781,162.186 415.887,164.923 415.646,163.796 		"/>
		<polygon fill="none" stroke="#000000" stroke-width="1.5" stroke-miterlimit="10" points="423.457,163.796 423.939,165.406 
			426.315,165.406 427.322,164.601 425.953,163.796 		"/>
		<polygon fill="none" stroke="#000000" stroke-width="1.5" stroke-miterlimit="10" points="421.604,166.413 422.329,167.299 
			424.061,167.299 423.457,166.01 		"/>
		<polygon fill="none" stroke="#000000" stroke-width="1.5" stroke-miterlimit="10" points="428.248,167.057 430.141,167.299 
			431.827,165.778 434.892,165.406 434.892,164.279 430.744,164.279 		"/>
		<polygon fill="none" stroke="#000000" stroke-width="1.5" stroke-miterlimit="10" points="429.094,151.032 425.309,151.193 
			424.531,150.106 426.033,148.455 428.812,149.421 430.181,149.3 432.234,146.885 430.43,146.844 429.255,147.609 425.39,146.671 
			422.833,148.979 423.014,152.643 421.524,154.615 422.45,159.366 424.303,158.803 423.738,155.542 424.826,154.333 
			425.752,156.75 427.967,157.515 427.967,155.783 426.718,153.02 		"/>
		<polygon fill="none" stroke="#000000" stroke-width="1.5" stroke-miterlimit="10" points="435.911,155.69 440.099,155.26 
			440.099,154.178 436.336,154.178 		"/>
		<polygon fill="none" stroke="#000000" stroke-width="1.5" stroke-miterlimit="10" points="436.877,146.671 438.005,145.274 
			437.308,144.429 435.911,145.812 435.375,149.248 437.308,149.723 		"/>
		<polygon fill="none" stroke="#000000" stroke-width="1.5" stroke-miterlimit="10" points="446.241,150.602 441.651,151.246 
			446.805,153.581 		"/>
		<polygon fill="none" stroke="#000000" stroke-width="1.5" stroke-miterlimit="10" points="414.141,142.953 406.198,146.615 
			406.146,146.641 406.304,150.966 408.76,155.26 416.584,155.26 420.452,150.322 420.452,141.359 420.452,138.081 417.581,138.316 
					"/>
		<polygon fill="none" stroke="#000000" stroke-width="1.5" stroke-miterlimit="10" points="467.332,159.613 457.387,154.414 
			452.943,152.091 448.793,155.456 444.395,153.729 443.911,156.146 446.488,156.065 452.893,158.728 454.035,161.999 
			451.906,163.298 457.387,165.202 459.385,165.896 463.192,162.396 468.13,167.216 472.635,168.145 467.058,162.565 		"/>
		<polygon fill="none" stroke="#000000" stroke-width="1.5" stroke-miterlimit="10" points="471.854,161.319 475.317,159.366 
			475.317,157.354 469.842,160.116 		"/>
		<polygon fill="none" stroke="#000000" stroke-width="1.5" stroke-miterlimit="10" points="474.2,154.349 472.635,154.454 
			476.687,157.354 478.307,156.8 		"/>
		<path fill="none" stroke="#000000" stroke-width="1.5" stroke-miterlimit="10" d="M386.499,122.365l1.312,4.857l-0.31,5.016
			l-0.121,1.978l3.543,3.006l0.34,1.104l1.379,4.48l5.675,4.839l0.445-1.726l-5.365-7.916l-3.439-5.076l0.808-7.839l3.862,3.831
			l1.934,1.917l2.174-0.298l0,0l0.08,3.463l6.176-4.081l-0.214-6.07l-6.444-6.815l0.322-3.723l4.406-2.504l0.075,2.055l12.484-4.46
			l4.082-9.134l-7.283-11.976l3.74-4.079h-4.296l-1.382,0.893l-2.697-4.435l3.435-3.007l2.36,4.504l3.307-2.276l1.86,3.53
			l2.458,0.685l2.577,5.584l3.113-0.215l0.536-3.597l-4.316-3.536l-1.91-1.564l2.469-0.322l-0.43-4.938l0.002-0.001l4.605-0.811
			l2.479-3.699v-6.873l-7.086-8.053l-6.873-0.107l1.181-8.482l14.173,0.107l1.54-4.814l5.977,2.264l0.021-2.22l1.482,0.154
			l2.576,2.469l-2.486,1.695l-0.304,5.069l10.094,9.557v-9.234l-5.692-5.476l13.476-4.268l0.169-1.376l-6.772-1.845l2.633-2.057
			l6.064,1.252l4.107,0.081l-3.3-3.541l-21.156-4.191l-32.801-0.931l-1.847-2.513l-11.445-1.87l-3.221,2.899h-9.256l-3.865-2.899
			h-20.938l-1.289-4.616h-19.327l-17.044,7.623l3.73,4.618l-3.221,3.328l-2.909-9.511l-5.141-0.406l2.467,5.623l-19.864,0.536
			l-18.576,7.624l-2.45-4.668l7.068,0.266l3.435-1.718l-13.528-4.314l-2.876,0.147l-2.922,0.148l-5.729,0.292l-19.649,13.6
			l1.972,4.623l5.905-0.966l0.408,0.469V47.5l3.801,4.376l6.205-5.491l-2.899-3.6l6.523-7.137h2.336l-3.141,7.113l3.664,1.852h5.597
			l-0.761,0.71l-0.907,0.845l-4.595,0.104l-0.376,0.965l1.359,1.024h-0.001l0.288,0.217l-0.322,1.451l-3.167-1.451l0.009,1.882
			h0.001l0.01,2.151l0.008,1.603l-3.22,0.106l-0.725-0.669l-4.625,1.127l-6.352-0.073l-0.267-1.054l-0.112-0.445l0.685-3.823
			l-1.876-0.025l-1.324,2.998l0.542,1.296l0.424,1.015l-3.122,1.869l-3.11,1.862l-1.825,1.093l-7.688,4.603h-2.812v1.181
			l3.313,1.793l0.445,5.883l-11.381,0.082l-0.054,2.173l-0.161,6.388l1.601,2.845l0.902,0.068l7.054,0.527l6.953-8.936l1.529-1.965
			l7.193,0.053l0.215-3.006h0.186h2.606l7.999,7.984l0.403,3.397l1.476-0.859l0.457-2.442l1.818-0.365l-9.753-8.447l3.908-0.234
			l3.392,3.919l0.701,0.174l1.107,0.275l1.323,0.329l0.905,3.881l0.253,0.292l1.419,1.64l2.738,0.766l-1.666,0.708l2.205,2.778
			l1.394-2.201l-1.555-3.382l3.085-1.516h2.541h0.001h3.069l-1.241-2.67l0.955-2.955l0.8-2.476l0.397-1.228h5.79l-1.289,1.329
			l1.78,1.006l2.407-0.188l-2.286-2.913l5.999-1.275l0.725,1.718l-1.771,0.483l0.308,2.824l6.417,2.245v3.012l-17.247,0.564
			l-1.476,1.771l-3.328-0.027l2.738,5.506L285.35,85.2l-0.588,2.75l-0.587,2.748l-1.114,4.135l-14.039-1.908l-5.897-0.8
			l-2.442,3.651l-5.369-1.074l-2.131-2.582l-4.573-1.097l-1.671-0.4l0.215-5.799l-5.061-0.147l-5.919-0.171l-7.918,3.03v-0.001
			l-9.02,0.94l-15.999,20.831l-0.082,2.309h-0.001l-0.225,6.364l-0.22,6.207h0.001l-0.05,1.441h-0.001l-0.084,2.362h0.001
			l-0.003,0.116l2.26,2.44l5.662,6.11v0.001l5.806,6.266l8.521-2.459l5.778-1.667l2.095-0.604l0.88-0.254l4.667,0.682l0.645,2.85
			h4.54h1.581l-0.081,3.645h0.001l-0.061,2.65l-0.096,4.329l3.634,4.847l1.831,2.444l0.998,1.328v11.728l-3.006,4.942l0.267,3.221
			l6.612,18.628l3.858,10.574h12.67l9.748-11.279l0.435-3.055l0.126-0.884l3.81-2.67l-0.281-8.002l8.94-7.328l-0.896-8.37
			l-1.076-12.049l2.923-3.402l17.35-20.185l-0.706-3.54l-12.07,1.788l-0.626-1.075h0.002l-8.401-14.435l-4.15-7.134l-6.375-10.958
			l3.49,2.846l0.943-2.237l0.035-0.083l0.04-0.094l12.509,21.742l2.47,8.053l16.279-7.343l8.202-10.158l-4.541-4.038l-1.687-1.499
			l-2.657,2.979l-3.356-0.666h-0.001l-2.845-1.878l-3.549-5.798h0.002l-1.874-3.06l1.713-0.021l0.115,0.198l2.359,0.227l5.477,5.717
			l10.092,3.006h2.804h8.793l2.317,2.645l0.34,0.389l3.181,1.006l-1.489,1.53l1.409,1.838l2.536,0.295l0.443-2.101l1.007,0.007
			l8.133,23.384l5.154-3.171l0.805-9.396l11.768-11.378l1.251-1.21l8.086,6.782l0.961,5.023l1.774,0.532l1.263-1.589
			L386.499,122.365z M284.12,150.685l-0.516,0.911h-2.991l0.764-1.329l1.143-1.985h2.965L284.12,150.685z M312.054,83.198
			L312.054,83.198l-0.073,1.737l-4.969-0.003l-2.744-4.834l-2.181-3.841l-1.463-2.577V68.45h0.001l5.046-2.04l3.007,2.04
			l-3.651,1.771l-0.108,2.631l2.416,2.002l4.896,4.058L312.054,83.198z"/>
		<polygon fill="none" stroke="#000000" stroke-width="1.5" stroke-miterlimit="10" points="428.877,56.747 426.947,56.692 
			432.423,63.457 435.105,68.45 437.094,68.45 433.765,63.726 435.694,63.726 		"/>
		<polygon fill="none" stroke="#000000" stroke-width="1.5" stroke-miterlimit="10" points="247.979,51.055 246.938,51.482 
			246.615,53.125 248.563,53.106 249.152,52.214 		"/>
		<polygon fill="none" stroke="#000000" stroke-width="1.5" stroke-miterlimit="10" points="253.138,82.22 249.273,82.22 
			249.273,83.187 250.722,84.18 253.138,84.555 		"/>
		<polygon fill="none" stroke="#000000" stroke-width="1.5" stroke-miterlimit="10" points="242.992,80.744 244.844,80.744 
			244.844,77.308 242.992,76.771 		"/>
		<polygon fill="none" stroke="#000000" stroke-width="1.5" stroke-miterlimit="10" points="245.247,74.034 243.917,74.034 
			243.917,75.672 244.844,76.019 		"/>
		<polygon fill="none" stroke="#000000" stroke-width="1.5" stroke-miterlimit="10" points="227.61,52.935 227.651,55.404 
			225.96,56.33 227.45,58.499 224.43,61.363 228.416,60.638 232.482,59.994 232.739,58.504 233.57,58.504 233.751,56.841 
			231.116,56.286 227.832,48.726 225.322,48.649 225.324,52.72 		"/>
		<polygon fill="none" stroke="#000000" stroke-width="1.5" stroke-miterlimit="10" points="218.511,55.092 218.512,59.495 
			220.203,59.484 220.202,57.981 223.423,58.424 223.182,55.162 224.43,54.719 224.43,53.106 221.49,52.907 		"/>
		<polygon fill="none" stroke="#000000" stroke-width="1.5" stroke-miterlimit="10" points="233.57,80.648 235.754,80.648 
			235.754,78.757 		"/>
		<polygon fill="none" stroke="#000000" stroke-width="1.5" stroke-miterlimit="10" points="311.067,106.038 311.965,105.117 
			310.395,102.916 309.71,105.141 		"/>
		<polygon fill="none" stroke="#000000" stroke-width="1.5" stroke-miterlimit="10" points="278.988,87.938 281.564,88.582 
			282.585,86.609 		"/>
		<polygon fill="none" stroke="#000000" stroke-width="1.5" stroke-miterlimit="10" points="300.408,180.224 299.604,186.021 
			298.234,189.887 299.926,193.913 304.004,194.09 310.929,171.863 308.462,171.863 		"/>
		<polygon fill="none" stroke="#000000" stroke-width="1.5" stroke-miterlimit="10" points="55.991,62.24 53.36,60.092 
			52.232,61.059 54.066,63.457 55.991,63.457 		"/>
		<polygon fill="none" stroke="#000000" stroke-width="1.5" stroke-miterlimit="10" points="147.365,65.565 156.837,65.565 
			154.868,62.427 153.086,62.002 153.086,59.751 		"/>
		<polygon fill="none" stroke="#000000" stroke-width="1.5" stroke-miterlimit="10" points="151.511,40.265 151.511,35.594 
			155.111,36.875 157.182,35.494 156.013,33.309 153.934,32.551 153.838,29.247 142.304,24.534 140.578,24.516 136.57,27.81 
			137.908,24.496 135.969,24.481 131.298,29.446 142.653,28.829 149.578,35.03 144.92,34.95 142.572,36.875 137.279,36.875 
			137.279,38.387 142.653,38.387 147.196,42.15 148.438,41.608 147.365,39.218 150.493,40.708 		"/>
		<polygon fill="none" stroke="#000000" stroke-width="1.5" stroke-miterlimit="10" points="131.8,39.901 132.419,38.387 
			128.91,36.875 125.953,39.282 		"/>
		<polygon fill="none" stroke="#000000" stroke-width="1.5" stroke-miterlimit="10" points="121.344,30.752 120.519,29.446 
			117.491,30.752 118.575,32.159 		"/>
		<polygon fill="none" stroke="#000000" stroke-width="1.5" stroke-miterlimit="10" points="125.125,26.548 126.114,23.906 
			119.579,26.026 121.344,27.81 		"/>
		<polygon fill="none" stroke="#000000" stroke-width="1.5" stroke-miterlimit="10" points="132.419,25.286 131.378,23.906 
			126.789,24.964 127.271,26.655 		"/>
		<polygon fill="none" stroke="#000000" stroke-width="1.5" stroke-miterlimit="10" points="148.37,21.461 139.915,21.461 
			137.096,20.293 134.358,22.628 145.471,23.503 		"/>
		<polygon fill="none" stroke="#000000" stroke-width="1.5" stroke-miterlimit="10" points="147.323,19.407 141.364,19.407 
			142.25,20.293 148.773,20.293 149.82,21.179 159.322,16.75 166.972,15.22 172.771,11.947 149.739,13.655 149.739,14.898 
			157.51,14.737 156.423,16.187 148.37,16.347 149.417,18.2 145.954,17.636 		"/>
		<polygon fill="none" stroke="#000000" stroke-width="1.5" stroke-miterlimit="10" points="145.535,15.8 143.764,14.471 
			138.793,16.564 143.075,17.375 		"/>
		<polygon fill="none" stroke="#000000" stroke-width="1.5" stroke-miterlimit="10" points="103.564,24.381 101.236,23.306 
			91.71,25.733 93.479,27.81 		"/>
		<polygon fill="none" stroke="#000000" stroke-width="1.5" stroke-miterlimit="10" points="102.63,28.202 97.637,29.474 
			103.838,31.89 108.106,30.037 112.857,31.165 116.423,30.348 112.945,28.741 115.622,25.281 112.938,25.281 111.327,27.363 
			110.683,25.281 107.84,26.383 104.862,25.007 99.429,26.854 		"/>
		<polygon fill="none" stroke="#000000" stroke-width="1.5" stroke-miterlimit="10" points="103.06,108.231 98.684,108.231 
			96.993,109.841 101.935,109.841 105.932,112.499 104.412,114.19 111.327,114.19 		"/>
		<polygon fill="none" stroke="#000000" stroke-width="1.5" stroke-miterlimit="10" points="103.918,117.25 104.965,118.136 
			107.945,118.136 107.945,117.089 106.898,116.042 103.918,116.042 		"/>
		<polygon fill="none" stroke="#000000" stroke-width="1.5" stroke-miterlimit="10" points="123.326,117.439 123.94,116.432 
			122.271,116.432 121.665,117.439 		"/>
		<polygon fill="none" stroke="#000000" stroke-width="1.5" stroke-miterlimit="10" points="134.896,243.761 137.1,245.784 
			143.884,246.03 136.564,242.211 		"/>
		<path fill="none" stroke="#000000" stroke-width="1.5" stroke-miterlimit="10" d="M157.39,154.132l0.21-2.205l-3.716-1.603
			l-3.721,2.179l1.209-3.264l-2.471-1.067l-3.516,2.698l2.554-3.759l-2.249-4.914l-1.293-2.829l-2.737-0.234l-4.78-0.41
			l-5.107-4.864l-1.657-1.578l-6.549-0.644l-3.65-2.6l-8.457-0.074l-1.725-0.015l-3.585,4.856l-1.791,0.112l-0.508-1.862
			l-3.875,0.346l-1.366,1.136l-1.812-1l-1.027-0.567l-0.031-1.349l-0.215-9.461l-8.033,0.081l-0.043,0.038l0.565-1.023l2.617-4.938
			l0.133-3.405l-3.435-0.063l-2.731,4.48h-7.517l-3.656-7.884l3.036-3.811l7.058-8.858l16.776,0.053l1.111,8.387l2.66,0.069
			l0.068-10.441l27.165-23.22l1.853-0.32l5.154-0.888l-3.382,1.61l0.322,1.397l9.18-3.225l-4.484-0.213l-2.094-1.883l2.068-3.21
			l-1.004-0.964l-6.492,2.944v-1.691l6.207-2.979l9.959-0.429l7.479-3.981l0.037-1.817l-5.454-0.943l-0.657-8.91l-7.128,2.806
			l0.045-4.192l-3.437-2.926h-4.668l-12.636,18.375l-3.056,0.01l0.054-6.045l-10.875-5.905l10.875-8.053l6.173-1.126l-1.289-1.908
			l9.502-1.047l3.866-4.026l-3.624-0.402l-4.993,3.302l0.563-2.819l-2.335-0.242l-0.546-3.405l-4.044,1.794l1.047,2.174
			l-5.396,2.577l-9.422-1.771l-4.977,2.335l-12.096-4.832l-23.11,0.483h-0.001l-3.65-1.503l-19.113,0.108l-7.73,3.113v3.436
			l-8.696-0.107l-1.65,2.304l7.339-0.264l-9.448,3.543l-4.565,6.186l3.921-0.065l-7.517,4.939l2.748,0.215l14.389-6.871
			l16.606-0.579l5.045,5.047l-1.933,8.846l3.463,3.141v1.691L44.917,76.932v10.362l4.666,4.667l0.032,0.032l0.694,7.348l5.021,9.502
			l2.057-1.592l-3.959-8.441v-4.751h2.335l0.09,4.419l7.5,17.618l12.23,5.103l3.051-0.807l2.687,2.738l3.99,2.015l2.822,1.266
			l0.726,0.326l2.535,3.426l2.893,3.909l1.044,0.373l4.313,1.537l1.049-1.561l2.466,0.237l0.721,2.389l0.738,2.45l-0.702,4.598
			l-5.154,6.496l-0.37,5.917l-0.113,1.814l10.801,18.396l9.332,6.246l1.562,38.246l4.138,3.344l0.19,6.86l7.156,9.259l2.316,0.238
			l1.871,0.194l-0.966-20.133l10.898-4.726l-4.942-6.87l5.889,2.159l2.354-4.1l4.807-8.367l1.127-7.248l11.66-5.161l2.171-16.123
			l5.028-6.578v-3.972l-8.229-5.37L157.39,154.132z M111.381,76.127h-3.047l2.521-1.719h3.032L111.381,76.127z M118.31,71.374h1.782
			l-2.481,1.692h-1.768L118.31,71.374z M101.066,65.538l7.724-1.639l0.967,3.423l1.562,1.151l2.625-0.185l1.035,3.085h-1.534
			l-2.119,1.64l-2.147,0.215l0.429-3.705h-1.657l-1.94,1.289l-3.603,5.315h-2.115l4.074-6.604l4.811-1.029l-0.268-0.903
			l-3.167-0.108l-1.504-0.913l-1.878,0.913h-2.202L101.066,65.538z"/>
		<polygon fill="none" stroke="#000000" stroke-width="1.5" stroke-miterlimit="10" points="116.783,116.042 119.385,116.042 
			120.024,115.096 115.152,114.565 112.107,114.565 113.099,115.961 111.327,115.961 111.327,116.588 115.152,116.588 
			115.152,117.25 		"/>
	</g>
</g>
<g id="countries">
	<polygon fill="#BCBEC0" stroke="#000000" stroke-width="0.25" stroke-miterlimit="10" points="87.329,111.85 84.598,116.33 
		77.081,116.33 73.424,108.446 76.46,104.635 72.673,97.198 68.083,97.359 65.906,94.058 49.583,91.96 49.614,91.992 50.309,99.34 
		55.329,108.842 57.386,107.25 53.427,98.809 53.427,94.058 55.762,94.058 55.853,98.477 63.353,116.095 75.583,121.197 
		78.635,120.391 81.321,123.128 82.659,120.753 85.477,120.753 85.075,117.658 87.49,117.658 90.631,115.317 90.764,111.913 	"/>
	<polygon fill="#BCBEC0" stroke="#000000" stroke-width="0.25" stroke-miterlimit="10" points="204.847,36.835 204.847,38.855 
		212.437,39.942 216.981,37.733 216.981,37.111 214.726,34.829 211.585,35.875 207.8,35.795 206.997,36.885 	"/>
	<polygon fill="#BCBEC0" stroke="#000000" stroke-width="0.25" stroke-miterlimit="10" points="250.428,85.683 250.413,87.263 
		252.849,87.891 252.864,85.747 	"/>
	<polygon fill="#BCBEC0" stroke="#000000" stroke-width="0.25" stroke-miterlimit="10" points="177.45,13.851 168.18,17.072 
		160.771,19.327 160.771,21.587 172.046,21.748 174.945,26.735 174.945,31.245 169.526,34.318 169.688,40.438 173.087,43.875 
		177.114,43.875 183.249,37.386 191.918,34.829 195.17,32.34 201.73,31.935 206.325,30.58 214.968,16.831 220.296,15.741 
		222.175,13.851 206.808,12.305 193.532,13.851 	"/>
	<polygon fill="#BCBEC0" stroke="#000000" stroke-width="0.25" stroke-miterlimit="10" points="418.947,108.07 421.097,110.083 
		422.41,106.378 421.097,105.01 	"/>
	<polygon fill="#BCBEC0" stroke="#000000" stroke-width="0.25" stroke-miterlimit="10" points="392.855,74.731 395.284,69.807 
		401.77,68.45 402.197,66.034 397.688,65.309 395.972,62.49 387.38,62.49 369.824,58.142 367.892,62.49 360.752,60.316 
		355.423,64.376 372.779,74.516 	"/>
	<g id="china">
		<polygon fill="#BCBEC0" stroke="#000000" stroke-width="0.25" stroke-miterlimit="10" points="403.005,114.995 403.005,116.525 
			404.052,117.787 405.582,115.881 405.582,114.432 		"/>
		<polygon fill="#BCBEC0" stroke="#000000" stroke-width="0.25" stroke-miterlimit="10" points="412.724,63.35 404.993,55.779 
			397.477,55.779 399.192,61.846 395.974,62.49 397.69,65.309 402.199,66.034 401.771,68.45 395.287,69.807 392.858,74.731 
			372.781,74.516 355.425,64.376 347.91,70.101 349.159,75.912 341.642,78.705 343.788,83.965 351.789,87.615 352.11,94.058 
			373.048,101.305 376.914,97.762 385.128,101.305 384,104.365 388.349,111.613 395.974,107.748 400.951,112.007 403.061,110.808 
			403.136,112.862 415.62,108.402 419.702,99.268 412.419,87.292 416.159,83.213 411.863,83.213 410.481,84.106 407.784,79.671 
			411.219,76.664 413.579,81.168 416.889,78.891 416.889,78.891 423.245,74.517 423.245,66.034 		"/>
	</g>
	<g id="japan">
		<polygon fill="#BCBEC0" stroke="#000000" stroke-width="0.25" stroke-miterlimit="10" points="443.549,73.08 437.025,70.342 
			437.146,75.737 438.436,76.502 439.361,75.254 442.301,75.214 		"/>
		<polygon fill="#BCBEC0" stroke="#000000" stroke-width="0.25" stroke-miterlimit="10" points="441.495,78.113 439.535,77.545 
			440.662,82.699 436.65,86.336 431.245,87.728 430.765,89.387 437.234,88.432 437.726,90.93 439.197,90.306 439.361,88.34 
			443.697,87.225 443.474,81.552 		"/>
		<polygon fill="#BCBEC0" stroke="#000000" stroke-width="0.25" stroke-miterlimit="10" points="430.101,90.93 432.436,90.635 
			433.201,91.763 432.355,94.42 		"/>
		<polygon fill="#BCBEC0" stroke="#000000" stroke-width="0.25" stroke-miterlimit="10" points="433.725,90.192 436.342,89.83 
			435.214,91.883 		"/>
	</g>
	<g id="phillipines">
		<polygon fill="#BCBEC0" stroke="#000000" stroke-width="0.25" stroke-miterlimit="10" points="422.088,117.035 421.524,122.045 
			424.826,126.028 428.714,126.519 429.255,124.873 425.712,124.498 424.423,122.887 425.712,119.934 424.426,117.086 		"/>
		<polygon fill="#BCBEC0" stroke="#000000" stroke-width="0.25" stroke-miterlimit="10" points="418.079,133.737 419.649,134.049 
			422.44,131.731 422.375,129.829 		"/>
		<path fill="#BCBEC0" stroke="#000000" stroke-width="0.25" stroke-miterlimit="10" d="M434.812,133.919"/>
		<polygon fill="#BCBEC0" stroke="#000000" stroke-width="0.25" stroke-miterlimit="10" points="433.752,136.936 432.154,131.946 
			430.974,135.029 427.108,135.029 430.329,137.328 430.329,139.557 432.66,138.862 431.872,137.422 		"/>
		<polygon fill="#BCBEC0" stroke="#000000" stroke-width="0.25" stroke-miterlimit="10" points="423.457,126.201 425.12,127.826 
			424.584,128.833 423.243,127.516 		"/>
		<polygon fill="#BCBEC0" stroke="#000000" stroke-width="0.25" stroke-miterlimit="10" points="425.12,130.188 426.303,130.994 
			427.592,129.039 425.873,128.833 		"/>
		<polygon fill="#BCBEC0" stroke="#000000" stroke-width="0.25" stroke-miterlimit="10" points="429.524,128.148 431.135,130.242 
			432.906,130.242 431.215,127.518 		"/>
		<polygon fill="#BCBEC0" stroke="#000000" stroke-width="0.25" stroke-miterlimit="10" points="429.524,129.913 430.43,131.503 
			429.697,132.471 428.422,130.539 		"/>
		<polygon fill="#BCBEC0" stroke="#000000" stroke-width="0.25" stroke-miterlimit="10" points="427.592,131.519 428.422,132.767 
			427.592,133.773 426.638,132.607 		"/>
	</g>
	<polygon fill="#BCBEC0" stroke="#000000" stroke-width="0.25" stroke-miterlimit="10" points="434.892,165.406 434.892,164.279 
		430.744,164.279 431.827,165.78 	"/>
	<g id="indonesia">
		<polygon fill="#BCBEC0" stroke="#000000" stroke-width="0.25" stroke-miterlimit="10" points="417.658,141.65 415.404,145.918 
			407.834,147.609 406.198,146.615 406.146,146.641 406.304,150.965 408.76,155.26 416.584,155.26 420.452,150.321 420.452,141.359 
					"/>
		<polygon fill="#BCBEC0" stroke="#000000" stroke-width="0.25" stroke-miterlimit="10" points="400.587,154.615 387.702,141.248 
			383.288,139.557 398.216,159.889 400.587,157.917 		"/>
		<polygon fill="#BCBEC0" stroke="#000000" stroke-width="0.25" stroke-miterlimit="10" points="399.781,162.186 402.197,160.252 
			406.224,161.782 409.848,160.978 415.646,163.796 415.887,164.923 		"/>
		<polygon fill="#BCBEC0" stroke="#000000" stroke-width="0.25" stroke-miterlimit="10" points="423.457,163.796 423.939,165.406 
			426.315,165.406 427.322,164.601 425.953,163.796 		"/>
		<polygon fill="#BCBEC0" stroke="#000000" stroke-width="0.25" stroke-miterlimit="10" points="421.604,166.413 422.329,167.299 
			424.061,167.299 423.457,166.01 		"/>
		<polygon fill="#BCBEC0" stroke="#000000" stroke-width="0.25" stroke-miterlimit="10" points="430.744,164.279 428.248,167.057 
			430.141,167.299 431.827,165.78 430.744,164.279 		"/>
		<polygon fill="#BCBEC0" stroke="#000000" stroke-width="0.25" stroke-miterlimit="10" points="425.39,146.671 422.833,148.979 
			423.014,152.643 421.524,154.615 422.45,159.366 424.303,158.803 423.738,155.542 424.826,154.333 425.752,156.75 
			427.967,157.515 427.967,155.783 426.718,153.019 429.094,151.032 425.309,151.193 424.531,150.106 426.033,148.455 
			428.812,149.421 430.181,149.3 432.234,146.885 430.43,146.844 429.255,147.609 		"/>
		<polygon fill="#BCBEC0" stroke="#000000" stroke-width="0.25" stroke-miterlimit="10" points="436.336,154.176 435.911,155.69 
			440.099,155.26 440.099,154.176 		"/>
		<polygon fill="#BCBEC0" stroke="#000000" stroke-width="0.25" stroke-miterlimit="10" points="435.375,149.248 437.308,149.723 
			436.877,146.671 438.005,145.274 437.308,144.429 435.911,145.812 		"/>
		<polygon fill="#BCBEC0" stroke="#000000" stroke-width="0.25" stroke-miterlimit="10" points="441.651,151.246 446.805,153.581 
			446.241,150.602 		"/>
		<polygon fill="#BCBEC0" stroke="#000000" stroke-width="0.25" stroke-miterlimit="10" points="452.943,152.091 448.793,155.457 
			444.395,153.729 443.911,156.146 446.488,156.065 452.893,158.729 454.035,162 451.906,163.299 457.387,165.202 457.387,154.414 
					"/>
	</g>
	<polygon fill="#BCBEC0" stroke="#000000" stroke-width="0.25" stroke-miterlimit="10" points="423.781,88.69 426.895,88.475 
		427.431,84.877 423.114,81.342 421.204,83.106 	"/>
	<polygon fill="#BCBEC0" stroke="#000000" stroke-width="0.25" stroke-miterlimit="10" points="418.746,82.421 421.204,83.106 
		423.114,81.342 421.204,79.778 423.673,79.456 423.243,74.517 416.886,78.891 	"/>
	<g id="malaysia">
		<polygon fill="#BCBEC0" stroke="#000000" stroke-width="0.25" stroke-miterlimit="10" points="415.404,145.918 417.658,141.65 
			420.452,141.359 420.452,138.081 417.581,138.316 414.141,142.953 406.198,146.615 407.834,147.609 		"/>
		<polygon fill="#BCBEC0" stroke="#000000" stroke-width="0.25" stroke-miterlimit="10" points="392.642,142.805 398.316,147.645 
			398.762,145.918 393.396,138.002 391.263,138.325 		"/>
	</g>
	<g id="papua_x5F_new_x5F_guinea">
		<polygon fill="#BCBEC0" stroke="#000000" stroke-width="0.25" stroke-miterlimit="10" points="467.058,162.565 467.332,159.612 
			457.387,154.414 457.387,165.202 459.385,165.896 463.192,162.396 468.13,167.216 472.635,168.145 		"/>
		<polygon fill="#BCBEC0" stroke="#000000" stroke-width="0.25" stroke-miterlimit="10" points="469.842,160.118 471.854,161.32 
			475.317,159.366 475.317,157.354 		"/>
		<polygon fill="#BCBEC0" stroke="#000000" stroke-width="0.25" stroke-miterlimit="10" points="472.635,154.454 476.687,157.354 
			478.307,156.801 474.2,154.349 		"/>
	</g>
	<polygon fill="#BCBEC0" stroke="#000000" stroke-width="0.25" stroke-miterlimit="10" points="385.877,115.104 388.346,113.312 
		388.346,111.613 383.998,104.365 385.125,101.305 382.605,100.218 379.219,102.648 377.631,113.636 380.138,115.738 
		381.099,120.761 382.873,121.293 384.136,119.704 386.499,122.365 387.811,127.222 387.501,132.237 389.526,128.256 	"/>
	<polygon fill="#BCBEC0" stroke="#000000" stroke-width="0.25" stroke-miterlimit="10" points="390.493,114.565 390.493,117.787 
		395.646,117.787 398.573,121.76 395.835,124.498 401.955,124.498 401.955,122.94 395.996,116.596 394.683,112.525 390.541,110.5 
		388.346,111.613 388.346,113.312 	"/>
	<polygon fill="#BCBEC0" stroke="#000000" stroke-width="0.25" stroke-miterlimit="10" points="398.573,121.76 395.646,117.787 
		390.493,117.787 390.493,114.565 388.346,113.312 385.877,115.104 389.526,128.256 387.501,132.237 387.38,134.215 
		390.923,137.221 391.263,138.325 393.396,138.002 389.957,132.927 390.765,125.088 394.627,128.919 394.627,125.706 	"/>
	<polygon fill="#BCBEC0" stroke="#000000" stroke-width="0.25" stroke-miterlimit="10" points="401.955,124.498 395.835,124.498 
		394.627,125.706 394.627,128.919 396.561,130.835 398.734,130.537 401.955,128.122 	"/>
	<polygon fill="#BCBEC0" stroke="#000000" stroke-width="0.25" stroke-miterlimit="10" points="390.543,110.5 394.683,112.525 
		395.996,116.596 401.958,122.94 401.958,124.498 401.958,128.122 398.734,130.537 398.814,134 404.99,129.919 404.776,123.85 
		398.332,117.035 398.654,113.312 400.949,112.007 395.974,107.748 	"/>
	<polygon fill="#BCBEC0" stroke="#000000" stroke-width="0.25" stroke-miterlimit="10" points="374.576,105.117 372.24,106.083 
		370.228,103.399 368.858,104.043 370.801,110.166 372.052,108.956 377.631,113.635 377.99,111.143 375.059,108.402 	"/>
	<polygon fill="#BCBEC0" stroke="#000000" stroke-width="0.25" stroke-miterlimit="10" points="376.911,97.762 373.046,101.305 
		372.24,102.984 368.858,102.145 369.331,100.02 368.36,99.684 366.291,102.984 354.919,98.674 354.952,95.042 352.108,94.058 
		351.786,87.615 349.31,86.485 347.02,86.485 343.62,88.901 343.529,90.958 345.588,92.125 346.572,96.146 342.1,100.262 
		339.236,100.262 339.236,103.303 341.383,104.109 341.383,106.727 337.515,107.761 337.854,108.15 341.035,109.157 
		339.546,110.687 340.955,112.525 343.491,112.821 343.935,110.72 344.941,110.727 353.074,134.111 358.229,130.94 359.033,121.544 
		370.801,110.166 368.858,104.043 370.228,103.399 372.24,106.083 374.576,105.117 375.059,108.402 377.99,111.143 379.219,102.648 
		382.605,100.218 	"/>
	<polygon fill="#BCBEC0" stroke="#000000" stroke-width="0.25" stroke-miterlimit="10" points="366.291,102.984 368.36,99.684 
		354.952,95.042 354.919,98.674 	"/>
	<polygon fill="#BCBEC0" stroke="#000000" stroke-width="0.25" stroke-miterlimit="10" points="372.24,102.984 373.046,101.305 
		369.331,100.02 368.858,102.145 	"/>
	<polygon fill="#BCBEC0" stroke="#000000" stroke-width="0.25" stroke-miterlimit="10" points="308.678,68.45 305.026,70.221 
		304.918,72.852 307.334,74.854 310.395,74.006 313.122,76.276 312.649,70.382 316.837,69.416 322.363,73.201 326.983,72.315 
		330.365,76.771 333.624,76.627 336.808,74.006 344.34,73.679 349.156,75.912 349.159,75.912 349.159,75.912 347.91,70.101 
		355.425,64.378 351.089,61.846 325.851,52.945 315.896,55.188 315.896,59.686 298.262,59.686 298.262,65.498 300.625,68.45 
		305.671,66.41 	"/>
	<polygon fill="#BCBEC0" stroke="#000000" stroke-width="0.25" stroke-miterlimit="10" points="326.178,98.809 322.957,89.468 
		324.245,86.729 322.554,83.992 315.951,81.898 312.053,83.198 311.98,84.935 307.012,84.932 304.268,80.097 297.725,80.744 
		297.725,82.677 305.673,96.167 308.032,96.393 313.509,102.11 323.601,105.117 326.404,105.117 328.433,101.627 	"/>
	<polygon fill="#BCBEC0" stroke="#000000" stroke-width="0.25" stroke-miterlimit="10" points="320.176,75.225 315.791,75.225 
		313.122,76.276 310.396,74.006 307.334,74.854 312.23,78.912 312.054,83.198 315.952,81.898 322.556,83.992 324.246,86.729 
		330.529,83.508 	"/>
	<polygon fill="#BCBEC0" stroke="#000000" stroke-width="0.25" stroke-miterlimit="10" points="341.383,104.109 339.236,103.303 
		339.236,100.262 342.1,100.262 346.572,96.146 345.588,92.125 343.529,90.958 343.62,88.901 347.02,86.485 349.312,86.485 
		344.536,84.306 339.465,85.039 337.854,92.017 331.976,97.444 325.685,97.381 326.178,98.809 328.433,101.627 326.404,105.117 
		335.197,105.117 337.515,107.761 341.383,106.727 	"/>
	<polygon fill="#BCBEC0" stroke="#000000" stroke-width="0.25" stroke-miterlimit="10" points="330.365,76.771 326.985,72.315 
		322.365,73.201 316.838,69.416 312.65,70.382 313.122,76.276 315.791,75.225 320.176,75.225 330.526,83.508 333.924,84.415 
		332.379,79.885 337.19,78.505 337.459,76.457 	"/>
	<polygon fill="#BCBEC0" stroke="#000000" stroke-width="0.25" stroke-miterlimit="10" points="333.921,84.415 330.526,83.508 
		324.245,86.729 322.957,89.468 325.685,97.381 331.976,97.444 337.854,92.017 339.465,85.039 338.418,82.099 	"/>
	<polygon fill="#BCBEC0" stroke="#000000" stroke-width="0.25" stroke-miterlimit="10" points="343.788,83.965 342.307,80.334 
		337.99,80.744 333.954,79.433 332.379,79.885 333.921,84.415 338.418,82.099 339.465,85.039 344.536,84.306 	"/>
	<polygon fill="#BCBEC0" stroke="#000000" stroke-width="0.25" stroke-miterlimit="10" points="349.156,75.912 344.34,73.679 
		336.808,74.006 333.624,76.627 337.459,76.457 337.19,78.505 333.954,79.433 337.99,80.744 342.307,80.334 341.642,78.705 	"/>
	<polygon fill="#BCBEC0" stroke="#000000" stroke-width="0.25" stroke-miterlimit="10" points="302.087,76.256 299.728,75.672 
		298.262,77.778 301.145,80.406 304.268,80.097 	"/>
	<polygon fill="#BCBEC0" stroke="#000000" stroke-width="0.25" stroke-miterlimit="10" points="294.275,73.201 292.074,73.679 
		292.074,76.691 296.345,77.778 298.262,77.778 299.728,75.672 	"/>
	<polygon fill="#BCBEC0" stroke="#000000" stroke-width="0.25" stroke-miterlimit="10" points="298.262,77.778 296.345,77.778 
		297.725,80.744 301.145,80.406 	"/>
	<polygon fill="#BCBEC0" stroke="#000000" stroke-width="0.25" stroke-miterlimit="10" points="269.053,48.804 267.471,49.284 
		265.171,47.995 264.042,48.262 264.331,48.479 264.008,49.929 260.841,48.479 260.85,50.361 265.171,51.463 268.278,52.886 
		269.484,51.86 	"/>
	<polygon fill="#BCBEC0" stroke="#000000" stroke-width="0.25" stroke-miterlimit="10" points="265.172,51.463 260.852,50.361 
		260.861,52.512 263.269,53.315 263.929,54.679 264.454,56.134 268.279,52.886 	"/>
	<polygon fill="#BCBEC0" stroke="#000000" stroke-width="0.25" stroke-miterlimit="10" points="274.277,57.417 275.888,56.39 
		273.096,51.86 269.485,51.86 264.454,56.134 265.249,58.339 272.465,59.489 276.955,58.507 	"/>
	<polygon fill="#BCBEC0" stroke="#000000" stroke-width="0.25" stroke-miterlimit="10" points="268.563,45.323 267.656,46.168 
		263.061,46.272 262.685,47.238 264.043,48.262 265.172,47.995 267.472,49.284 269.054,48.804 	"/>
	<polygon fill="#BCBEC0" stroke="#000000" stroke-width="0.25" stroke-miterlimit="10" points="287.927,62.974 276.955,58.507 
		272.465,59.489 265.249,58.339 265.701,59.591 263.124,62.808 263.124,64.628 272.868,64.628 273.809,66.41 272.123,69.059 
		273.598,69.678 273.995,68.45 279.785,68.45 278.496,69.778 280.276,70.785 282.684,70.597 280.397,67.685 286.396,66.41 	"/>
	<polygon fill="#BCBEC0" stroke="#000000" stroke-width="0.25" stroke-miterlimit="10" points="262.156,35.648 260.385,31.326 
		258.734,31.326 248.627,38.734 248.627,45.323 247.238,47.5 251.04,51.875 257.244,46.385 254.345,42.785 260.868,35.648 	"/>
	<polygon fill="#BCBEC0" stroke="#000000" stroke-width="0.25" stroke-miterlimit="10" points="258.603,29.773 238.954,43.373 
		240.925,47.995 246.831,47.029 247.239,47.5 248.628,45.323 248.628,38.734 258.735,31.326 260.386,31.326 264.332,31.326 
		264.332,29.481 	"/>
	<polygon fill="#BCBEC0" stroke="#000000" stroke-width="0.25" stroke-miterlimit="10" points="267.253,29.333 264.332,29.481 
		264.332,31.326 260.386,31.326 262.157,35.648 263.204,35.648 260.063,42.761 263.728,44.613 269.325,44.613 272.465,40.989 	"/>
	<g id="russia">
		<polygon fill="#BCBEC0" stroke="#000000" stroke-width="0.25" stroke-miterlimit="10" points="426.947,56.692 432.423,63.457 
			435.105,68.45 437.094,68.45 433.765,63.726 435.694,63.726 428.877,56.747 		"/>
		<polygon fill="#BCBEC0" stroke="#000000" stroke-width="0.25" stroke-miterlimit="10" points="263.269,53.315 260.861,52.512 
			260.869,54.115 263.929,54.679 		"/>
		<polygon fill="#BCBEC0" stroke="#000000" stroke-width="0.25" stroke-miterlimit="10" points="460.5,37.768 464.607,37.849 
			461.308,34.308 440.151,30.117 407.351,29.186 405.504,26.673 394.059,24.803 390.838,27.702 381.582,27.702 377.717,24.803 
			356.779,24.803 355.49,20.187 336.163,20.187 319.119,27.809 322.85,32.427 319.629,35.755 316.72,26.244 311.579,25.837 
			314.046,31.46 294.182,31.997 275.606,39.62 273.156,34.952 280.224,35.218 283.658,33.5 270.13,29.186 267.253,29.333 
			272.465,40.989 269.325,44.613 268.563,45.323 269.054,48.804 269.485,51.86 273.096,51.86 275.888,56.39 274.277,57.417 
			276.955,58.507 287.927,62.974 286.396,66.41 287.121,68.127 285.35,68.61 285.657,71.434 292.074,73.679 294.275,73.201 
			299.728,75.672 302.087,76.256 300.624,73.679 300.624,68.45 298.262,65.498 298.262,59.686 315.896,59.686 315.896,55.188 
			325.851,52.945 351.089,61.846 355.42,64.376 360.752,60.316 367.892,62.49 369.824,58.142 387.38,62.49 395.972,62.49 
			399.189,61.846 397.474,55.779 404.99,55.779 412.722,63.35 423.243,66.034 423.243,74.517 427.851,73.707 430.329,70.007 
			430.329,63.135 423.243,55.082 416.37,54.975 417.551,46.493 431.724,46.6 433.264,41.786 439.24,44.049 439.261,41.83 
			440.743,41.983 443.319,44.452 440.833,46.147 440.529,51.216 450.623,60.773 450.623,51.539 444.931,46.062 458.406,41.794 
			458.575,40.418 451.803,38.573 454.436,36.516 		"/>
	</g>
	<polygon fill="#BCBEC0" stroke="#000000" stroke-width="0.25" stroke-miterlimit="10" points="263.124,64.628 263.124,63.867 
		256.279,65.126 253.789,67.167 257.406,68.512 261.271,67.846 264.332,64.628 	"/>
	<polygon fill="#BCBEC0" stroke="#000000" stroke-width="0.25" stroke-miterlimit="10" points="256.923,62.055 256.665,61.953 
		254.427,63.376 256.279,65.126 263.124,63.867 263.124,62.808 	"/>
	<polygon fill="#BCBEC0" stroke="#000000" stroke-width="0.25" stroke-miterlimit="10" points="242.992,65.873 241.762,66.44 
		241.37,68.353 243.59,68.512 245.599,68.048 244.879,65.873 	"/>
	<polygon fill="#BCBEC0" stroke="#000000" stroke-width="0.25" stroke-miterlimit="10" points="252.296,60.235 248.403,61.443 
		249.867,63.376 254.427,63.376 256.665,61.953 	"/>
	<polygon fill="#BCBEC0" stroke="#000000" stroke-width="0.25" stroke-miterlimit="10" points="217.786,75.107 217.625,81.495 
		219.226,84.34 220.128,84.408 221.168,75.672 	"/>
	<polygon fill="#BCBEC0" stroke="#000000" stroke-width="0.25" stroke-miterlimit="10" points="272.868,64.628 269.979,64.628 
		272.123,69.059 273.809,66.41 	"/>
	<polygon fill="#BCBEC0" stroke="#000000" stroke-width="0.25" stroke-miterlimit="10" points="265.249,58.339 264.454,56.134 
		263.93,54.679 260.87,54.115 257.649,54.221 256.924,53.552 252.299,54.679 251.886,54.674 252.299,60.235 256.667,61.953 
		256.924,62.055 263.125,62.808 265.702,59.591 	"/>
	<polygon fill="#BCBEC0" stroke="#000000" stroke-width="0.25" stroke-miterlimit="10" points="272.123,69.059 269.979,64.628 
		264.332,64.628 261.271,67.846 264.01,72.396 270.854,71.617 272.797,72.154 273.598,69.678 	"/>
	<polygon fill="#BCBEC0" stroke="#000000" stroke-width="0.25" stroke-miterlimit="10" points="248.403,61.443 252.296,60.235 
		251.885,54.674 245.947,54.606 245.681,53.552 243.596,53.552 244.02,54.567 240.898,56.436 240.619,61.821 242.508,62.808 
		241.762,66.44 242.992,65.873 247.394,65.873 247.769,65.762 250.964,64.826 249.867,63.376 	"/>
	<g id="denmark">
		<polygon fill="#BCBEC0" stroke="#000000" stroke-width="0.25" stroke-miterlimit="10" points="245.568,53.106 246.253,49.284 
			244.377,49.258 243.053,52.256 243.596,53.552 245.681,53.552 		"/>
		<polygon fill="#BCBEC0" stroke="#000000" stroke-width="0.25" stroke-miterlimit="10" points="247.979,51.055 246.938,51.482 
			246.615,53.125 248.563,53.106 249.152,52.214 		"/>
	</g>
	<polygon fill="#BCBEC0" stroke="#000000" stroke-width="0.25" stroke-miterlimit="10" points="254.427,63.376 249.867,63.376 
		250.964,64.826 247.394,65.873 244.879,65.873 245.599,68.048 249.409,67.167 253.789,67.167 255.625,65.663 256.279,65.126 	"/>
	<g id="italy">
		<polygon fill="#BCBEC0" stroke="#000000" stroke-width="0.25" stroke-miterlimit="10" points="249.273,82.22 249.273,83.187 
			250.722,84.18 253.138,84.555 253.138,82.22 		"/>
		<polygon fill="#BCBEC0" stroke="#000000" stroke-width="0.25" stroke-miterlimit="10" points="242.992,76.771 242.992,80.744 
			244.844,80.744 244.844,77.308 		"/>
		<polygon fill="#BCBEC0" stroke="#000000" stroke-width="0.25" stroke-miterlimit="10" points="248.264,70.348 251.034,70.182 
			249.409,67.167 243.59,68.512 241.371,68.353 241.02,70.06 243.258,71.081 245.864,71.081 253.863,79.064 254.266,82.461 
			255.742,81.602 256.198,79.16 258.017,78.795 		"/>
	</g>
	<g id="france">
		<polygon fill="#BCBEC0" stroke="#000000" stroke-width="0.25" stroke-miterlimit="10" points="243.917,74.034 243.917,75.672 
			244.844,76.019 245.247,74.034 		"/>
		<polygon fill="#BCBEC0" stroke="#000000" stroke-width="0.25" stroke-miterlimit="10" points="241.02,70.06 242.508,62.808 
			235.963,59.391 228.275,63.994 225.463,63.994 225.463,65.175 228.776,66.969 229.221,72.852 234.135,75.999 235.664,74.034 
			242.857,74.086 243.072,71.081 243.258,71.081 		"/>
	</g>
	<polygon fill="#BCBEC0" stroke="#000000" stroke-width="0.25" stroke-miterlimit="10" points="240.675,60.739 240.722,59.853 
		237.788,58.298 235.963,59.391 239.631,61.305 	"/>
	<polygon fill="#BCBEC0" stroke="#000000" stroke-width="0.25" stroke-miterlimit="10" points="240.898,56.436 237.788,58.298 
		240.722,59.853 	"/>
	<polygon fill="#BCBEC0" stroke="#000000" stroke-width="0.25" stroke-miterlimit="10" points="240.617,61.821 240.674,60.739 
		239.629,61.305 	"/>
	<g id="united_kingdom">
		<polygon fill="#BCBEC0" stroke="#000000" stroke-width="0.25" stroke-miterlimit="10" points="231.116,56.286 227.832,48.726 
			225.322,48.649 225.324,52.72 227.61,52.935 227.651,55.404 225.96,56.33 227.45,58.499 224.43,61.363 228.416,60.638 
			232.482,59.994 232.739,58.504 233.57,58.504 233.751,56.841 		"/>
		<polygon fill="#BCBEC0" stroke="#000000" stroke-width="0.25" stroke-miterlimit="10" points="224.43,54.719 224.43,53.106 
			221.49,52.907 223.182,55.162 		"/>
	</g>
	<polygon fill="#BCBEC0" stroke="#000000" stroke-width="0.25" stroke-miterlimit="10" points="223.182,55.162 221.49,52.907 
		218.511,55.092 218.512,59.495 220.203,59.484 220.202,57.981 223.423,58.424 	"/>
	<g id="spain">
		<polygon fill="#BCBEC0" stroke="#000000" stroke-width="0.25" stroke-miterlimit="10" points="229.221,72.852 217.84,72.934 
			217.786,75.107 221.168,75.672 220.128,84.408 227.182,84.935 234.135,75.999 		"/>
		<polygon fill="#BCBEC0" stroke="#000000" stroke-width="0.25" stroke-miterlimit="10" points="233.57,80.648 235.754,80.648 
			235.754,78.757 		"/>
	</g>
	<polygon fill="#BCBEC0" stroke="#000000" stroke-width="0.25" stroke-miterlimit="10" points="264.953,74.601 261.271,75.321 
		261.512,78.449 265.981,77.003 	"/>
	<polygon fill="#BCBEC0" stroke="#000000" stroke-width="0.25" stroke-miterlimit="10" points="264.01,72.396 261.271,67.846 
		258.682,68.292 259.5,72.852 261.271,75.321 264.953,74.601 	"/>
	<polygon fill="#BCBEC0" stroke="#000000" stroke-width="0.25" stroke-miterlimit="10" points="253.788,67.167 249.407,67.167 
		251.033,70.182 251.443,70.158 253.54,69.059 254.491,67.429 	"/>
	<g id="turkey">
		<polygon fill="#BCBEC0" stroke="#000000" stroke-width="0.25" stroke-miterlimit="10" points="297.725,80.744 296.345,77.778 
			292.074,76.691 274.827,77.255 273.351,79.026 270.023,78.999 272.761,84.505 285.35,85.2 297.725,82.677 		"/>
		<polygon fill="#BCBEC0" stroke="#000000" stroke-width="0.25" stroke-miterlimit="10" points="270.013,77.778 273.083,77.778 
			271.842,75.108 269.981,75.709 		"/>
	</g>
	<polygon fill="#BCBEC0" stroke="#000000" stroke-width="0.25" stroke-miterlimit="10" points="258.898,69.498 254.346,70.114 
		256.265,74.208 257.372,74.483 259.5,72.852 	"/>
	<polygon fill="#BCBEC0" stroke="#000000" stroke-width="0.25" stroke-miterlimit="10" points="270.014,77.778 269.981,75.709 
		259.853,78.985 261.271,80.625 264.01,81.391 262.344,82.099 264.548,84.877 265.942,82.677 264.387,79.294 267.472,77.778 	"/>
	<polygon fill="#BCBEC0" stroke="#000000" stroke-width="0.25" stroke-miterlimit="10" points="258.898,69.498 258.682,68.292 
		257.406,68.512 254.492,67.429 253.541,69.059 251.444,70.158 252.172,70.114 255.564,74.034 256.265,74.208 254.346,70.114 	"/>
	<polygon fill="#BCBEC0" stroke="#000000" stroke-width="0.25" stroke-miterlimit="10" points="259.5,72.852 257.372,74.483 
		258.695,74.812 260.295,73.961 	"/>
	<polygon fill="#BCBEC0" stroke="#000000" stroke-width="0.25" stroke-miterlimit="10" points="261.271,75.321 260.295,73.961 
		258.695,74.812 259.6,78.693 259.853,78.985 261.512,78.449 	"/>
	<polygon fill="#BCBEC0" stroke="#000000" stroke-width="0.25" stroke-miterlimit="10" points="270.854,71.617 264.01,72.396 
		265.981,77.003 271.842,75.108 272.797,72.154 	"/>
	<polygon fill="#BCBEC0" stroke="#000000" stroke-width="0.25" stroke-miterlimit="10" points="311.965,105.117 310.395,102.916 
		309.71,105.141 311.067,106.038 	"/>
	<polygon fill="#BCBEC0" stroke="#000000" stroke-width="0.25" stroke-miterlimit="10" points="278.988,87.938 281.564,88.582 
		282.585,86.609 	"/>
	<polygon fill="#BCBEC0" stroke="#000000" stroke-width="0.25" stroke-miterlimit="10" points="290.055,90.629 286.826,92.554 
		284.893,91.202 284.893,97.655 286.235,97.816 288.249,96.876 288.866,93.252 290.44,92.588 290.521,92.554 	"/>
	<polygon fill="#BCBEC0" stroke="#000000" stroke-width="0.25" stroke-miterlimit="10" points="313.507,109.304 312.11,106.727 
		309.266,104.849 305.717,99.05 304.166,99.05 303.064,97.611 300.031,97.601 290.439,92.588 288.865,93.252 288.248,96.876 
		286.234,97.816 284.892,97.655 297.401,119.398 297.651,120.214 298.953,117.975 303.387,118.536 302.984,120.229 309.266,116.928 
		318.124,114.565 318.124,109.95 	"/>
	<polygon fill="#BCBEC0" stroke="#000000" stroke-width="0.25" stroke-miterlimit="10" points="303.845,95.99 302.074,95.99 
		301.657,97.606 303.066,97.611 304.167,99.05 305.719,99.05 	"/>
	<polygon fill="#BCBEC0" stroke="#000000" stroke-width="0.25" stroke-miterlimit="10" points="297.725,82.677 294.117,83.412 
		292.678,89.065 290.055,90.629 290.54,92.64 300.032,97.601 301.657,97.606 302.074,95.99 305.558,95.969 	"/>
	<polygon fill="#BCBEC0" stroke="#000000" stroke-width="0.25" stroke-miterlimit="10" points="319.812,105.912 318.125,104.413 
		315.468,107.393 312.111,106.727 313.509,109.304 316.109,109.667 316.109,109.667 	"/>
	<polygon fill="#BCBEC0" stroke="#000000" stroke-width="0.25" stroke-miterlimit="10" points="319.812,105.912 316.109,109.667 
		316.109,109.667 318.125,109.95 318.125,114.565 313.666,115.754 313.666,118.432 316.15,120.107 324.353,109.95 	"/>
	<polygon fill="#BCBEC0" stroke="#000000" stroke-width="0.25" stroke-miterlimit="10" points="285.35,85.2 284.762,87.95 
		286.354,88.501 284.893,91.202 286.826,92.554 292.678,89.065 294.117,83.412 	"/>
	<polygon fill="#BCBEC0" stroke="#000000" stroke-width="0.25" stroke-miterlimit="10" points="313.666,118.432 313.666,115.754 
		309.267,116.928 302.985,120.229 303.389,118.536 298.954,117.975 297.653,120.214 299.871,127.451 316.15,120.107 	"/>
	<polygon fill="#BCBEC0" stroke="#000000" stroke-width="0.25" stroke-miterlimit="10" points="284.762,87.95 284.175,90.698 
		284.893,91.202 286.354,88.501 	"/>
	<polygon fill="#BCBEC0" stroke="#000000" stroke-width="0.25" stroke-miterlimit="10" points="284.175,90.698 283.061,94.833 
		284.853,97.75 284.893,97.655 284.893,91.202 	"/>
	<polygon fill="#BCBEC0" stroke="#000000" stroke-width="0.25" stroke-miterlimit="10" points="300.408,180.224 299.604,186.021 
		298.234,189.887 299.926,193.913 304.004,194.091 310.929,171.865 308.462,171.865 	"/>
	<polygon fill="#BCBEC0" stroke="#000000" stroke-width="0.25" stroke-miterlimit="10" points="255.419,143.825 252.414,139.584 
		253.487,135.289 252.307,131.798 254.668,131.798 251.757,125.625 251.757,129.039 247.582,137.704 243.932,137.912 
		243.424,141.468 245.005,141.468 244.924,145.113 254.99,145.113 255.436,143.825 	"/>
	<polygon fill="#BCBEC0" stroke="#000000" stroke-width="0.25" stroke-miterlimit="10" points="250.678,145.113 247.69,145.113 
		247.69,147.763 244.865,147.763 244.77,152.091 248.403,156.938 248.403,152.79 253.058,152.79 	"/>
	<polygon fill="#BCBEC0" stroke="#000000" stroke-width="0.25" stroke-miterlimit="10" points="244.926,145.113 244.865,147.763 
		247.691,147.763 247.691,145.113 	"/>
	<polygon fill="#BCBEC0" stroke="#000000" stroke-width="0.25" stroke-miterlimit="10" points="236.107,125.625 233.573,137.936 
		238.24,138.618 238.885,141.468 243.424,141.468 243.932,137.912 247.582,137.704 251.757,129.039 251.757,125.625 	"/>
	<polygon fill="#BCBEC0" stroke="#000000" stroke-width="0.25" stroke-miterlimit="10" points="216.498,130.94 216.498,135.081 
		215.151,136.26 216.299,137.552 216.299,142.92 224.82,140.461 224.82,132.578 	"/>
	<polygon fill="#BCBEC0" stroke="#000000" stroke-width="0.25" stroke-miterlimit="10" points="213.215,134.077 210.493,136.654 
		216.299,142.92 216.299,137.552 	"/>
	<polygon fill="#BCBEC0" stroke="#000000" stroke-width="0.25" stroke-miterlimit="10" points="264.01,172.654 267.714,172.654 
		267.591,167.983 264.654,166.533 264.654,161.166 261.326,161.166 260.663,163.527 257.352,163.635 256.494,160.673 
		251.232,160.712 251.232,172.438 248.226,177.38 248.493,180.6 267.035,180.6 264.01,176.842 	"/>
	<polygon fill="#BCBEC0" stroke="#000000" stroke-width="0.25" stroke-miterlimit="10" points="224.82,130.35 224.82,140.461 
		230.598,138.794 229.221,130.35 	"/>
	<polygon fill="#BCBEC0" stroke="#000000" stroke-width="0.25" stroke-miterlimit="10" points="255.436,143.825 254.99,145.113 
		250.678,145.113 253.058,152.79 248.403,152.79 248.403,156.938 250.234,159.381 254.668,157.354 259.339,149.599 260.076,143.825 
			"/>
	<polygon fill="#BCBEC0" stroke="#000000" stroke-width="0.25" stroke-miterlimit="10" points="290.909,115.317 287.308,123.819 
		294.08,123.819 296.828,128.169 297.876,127.291 	"/>
	<polygon fill="#BCBEC0" stroke="#000000" stroke-width="0.25" stroke-miterlimit="10" points="210.433,130.94 207.717,133.655 
		210.495,136.654 213.216,134.077 	"/>
	<polygon fill="#BCBEC0" stroke="#000000" stroke-width="0.25" stroke-miterlimit="10" points="297.878,127.291 295.793,129.039 
		297.558,131.013 299.311,129.752 	"/>
	<polygon fill="#BCBEC0" stroke="#000000" stroke-width="0.25" stroke-miterlimit="10" points="294.41,176.585 293.515,168.216 
		284.625,170.072 284.625,172.654 286.88,174.162 286.88,177.381 284.732,179.257 284.732,175.486 282.585,173.729 282.52,173.773 
		278.459,176.599 282.52,179.257 282.52,182.978 279.983,188.921 279.983,195.495 281.815,195.47 281.941,194.585 285.751,191.917 
		285.47,183.911 	"/>
	<polygon fill="#BCBEC0" stroke="#000000" stroke-width="0.25" stroke-miterlimit="10" points="312.005,129.039 299.935,130.827 
		299.309,129.752 297.557,131.013 299.335,133.006 306.426,135.516 295.361,144.738 295.361,152.765 312.711,132.578 	"/>
	<polygon fill="#BCBEC0" stroke="#000000" stroke-width="0.25" stroke-miterlimit="10" points="269.453,180.6 248.493,180.6 
		255.105,199.229 261.755,199.229 261.755,182.204 270.597,182.204 	"/>
	<path fill="#BCBEC0" stroke="#000000" stroke-width="0.25" stroke-miterlimit="10" d="M279.983,195.495v2.123l-1.801-1.073v-1.659
		h1.801v-5.965h-4.599l-10.946,7.33l-2.684-3.094v6.071h-6.65l3.858,10.575h12.67l9.748-11.278l0.435-3.056L279.983,195.495z
		 M275.928,201.804l-1.396,1.451h-2.363v-2.146l1.826-1.182h1.933V201.804z"/>
	<polygon fill="#BCBEC0" stroke="#000000" stroke-width="0.25" stroke-miterlimit="10" points="298.583,142.053 289.135,142.053 
		288.075,140.943 285.04,141.368 285.913,145.113 285.484,148.281 284.12,150.685 292.438,156.166 295.361,152.765 295.361,144.738 
			"/>
	<polygon fill="#BCBEC0" stroke="#000000" stroke-width="0.25" stroke-miterlimit="10" points="293.515,168.216 292.438,156.166 
		284.12,150.685 283.604,151.594 280.613,151.594 281.377,150.267 280.015,150.267 276.965,157.848 282.52,165.676 284.625,165.676 
		284.625,170.072 	"/>
	<polygon fill="#BCBEC0" stroke="#000000" stroke-width="0.25" stroke-miterlimit="10" points="223.341,106.057 216.013,100.653 
		216.013,103.184 211.074,103.184 211.074,108.849 209.249,111.613 203.154,111.613 202.929,117.977 210.43,123.37 210.43,121.438 
		219.446,121.438 218.59,106.057 	"/>
	<polygon fill="#BCBEC0" stroke="#000000" stroke-width="0.25" stroke-miterlimit="10" points="277.384,150.267 276.54,153.816 
		278.775,153.347 280.015,150.267 	"/>
	<polygon fill="#BCBEC0" stroke="#000000" stroke-width="0.25" stroke-miterlimit="10" points="276.54,153.816 275.928,156.387 
		276.965,157.848 278.775,153.347 	"/>
	<polygon fill="#BCBEC0" stroke="#000000" stroke-width="0.25" stroke-miterlimit="10" points="215.854,127.987 207.257,127.987 
		204.831,130.542 207.716,133.655 210.432,130.94 213.215,134.077 215.151,136.26 216.498,135.081 216.498,130.94 	"/>
	<polygon fill="#BCBEC0" stroke="#000000" stroke-width="0.25" stroke-miterlimit="10" points="223.343,106.057 218.591,106.057 
		219.447,121.438 210.432,121.438 210.432,123.37 212.471,127.987 215.854,127.987 216.498,130.94 220.659,131.759 220.659,127.59 
		236.63,121.115 236.63,115.854 	"/>
	<polygon fill="#BCBEC0" stroke="#000000" stroke-width="0.25" stroke-miterlimit="10" points="281.294,163.948 275.928,164.762 
		274.961,169.11 278.183,170.399 277.055,172.654 267.591,167.983 267.714,172.654 264.01,172.654 264.01,176.842 267.035,180.6 
		272.707,180.6 282.52,173.773 282.52,165.676 	"/>
	<polygon fill="#BCBEC0" stroke="#000000" stroke-width="0.25" stroke-miterlimit="10" points="270.597,182.204 261.755,182.204 
		261.755,193.157 264.438,196.251 275.384,188.921 	"/>
	<polygon fill="#BCBEC0" stroke="#000000" stroke-width="0.25" stroke-miterlimit="10" points="229.448,124.027 220.659,127.59 
		220.659,131.759 224.82,132.578 224.82,130.35 229.221,130.35 234.333,128.473 	"/>
	<polygon fill="#BCBEC0" stroke="#000000" stroke-width="0.25" stroke-miterlimit="10" points="284.625,172.654 284.625,165.676 
		282.52,165.676 282.52,173.773 282.585,173.729 284.732,175.486 284.732,179.257 286.88,177.381 286.88,174.162 	"/>
	<polygon fill="#BCBEC0" stroke="#000000" stroke-width="0.25" stroke-miterlimit="10" points="299.335,133.006 295.792,129.039 
		296.829,128.169 294.081,123.819 287.309,123.819 282.52,135.127 289.135,142.053 298.583,142.053 306.426,135.516 	"/>
	<polygon fill="#BCBEC0" stroke="#000000" stroke-width="0.25" stroke-miterlimit="10" points="285.04,141.368 279.31,142.171 
		277.384,150.267 281.377,150.267 282.52,148.281 285.484,148.281 285.913,145.113 	"/>
	<polygon fill="#BCBEC0" stroke="#000000" stroke-width="0.25" stroke-miterlimit="10" points="253.896,108.849 246.939,108.849 
		236.631,115.854 236.631,121.115 229.449,124.027 234.335,128.473 235.62,128 236.109,125.625 251.758,125.625 255.286,118.377 	
		"/>
	<polygon fill="#BCBEC0" stroke="#000000" stroke-width="0.25" stroke-miterlimit="10" points="210.581,99.741 203.237,109.304 
		203.155,111.613 209.25,111.613 211.076,108.849 211.076,103.184 216.015,103.184 216.015,99.741 	"/>
	<polygon fill="#BCBEC0" stroke="#000000" stroke-width="0.25" stroke-miterlimit="10" points="210.43,123.37 202.929,117.977 
		202.708,124.184 207.638,125.625 202.658,125.625 202.574,127.987 212.47,127.987 	"/>
	<polygon fill="#BCBEC0" stroke="#000000" stroke-width="0.25" stroke-miterlimit="10" points="202.709,124.184 202.659,125.625 
		207.64,125.625 	"/>
	<polygon fill="#BCBEC0" stroke="#000000" stroke-width="0.25" stroke-miterlimit="10" points="257.89,108.849 253.895,108.849 
		255.285,118.377 251.757,125.625 254.668,131.798 252.307,131.798 253.487,135.289 265.172,129.77 265.172,123.762 
		267.768,121.196 268.027,115.359 	"/>
	<polygon fill="#BCBEC0" stroke="#000000" stroke-width="0.25" stroke-miterlimit="10" points="263.124,92.125 260.682,95.776 
		255.312,94.702 253.181,92.12 248.608,91.023 244.36,95.594 247.115,108.849 257.89,108.849 268.027,115.359 269.021,92.925 	"/>
	<polygon fill="#BCBEC0" stroke="#000000" stroke-width="0.25" stroke-miterlimit="10" points="219.235,88.474 210.581,99.74 
		215.155,99.74 216.015,99.74 216.015,99.009 228.255,92.328 228.255,87.534 	"/>
	<polygon fill="#BCBEC0" stroke="#000000" stroke-width="0.25" stroke-miterlimit="10" points="242.092,84.676 236.173,84.505 
		228.255,87.535 228.255,92.329 216.015,99.01 216.015,100.653 236.63,115.854 246.938,108.849 247.115,108.849 	"/>
	<polygon fill="#BCBEC0" stroke="#000000" stroke-width="0.25" stroke-miterlimit="10" points="246.938,90.623 247.153,84.823 
		242.092,84.676 244.36,95.594 248.608,91.023 	"/>
	<polygon fill="#BCBEC0" stroke="#000000" stroke-width="0.25" stroke-miterlimit="10" points="278.459,176.599 272.707,180.6 
		269.453,180.6 275.384,188.921 279.983,188.921 282.52,182.978 282.52,179.257 	"/>
	<polygon fill="#BCBEC0" stroke="#000000" stroke-width="0.25" stroke-miterlimit="10" points="273.995,199.927 272.169,201.108 
		272.169,203.255 274.532,203.255 275.928,201.804 275.928,199.927 	"/>
	<polygon fill="#BCBEC0" stroke="#000000" stroke-width="0.25" stroke-miterlimit="10" points="278.183,196.545 279.983,197.618 
		279.983,194.886 278.183,194.886 	"/>
	<polygon fill="#BCBEC0" stroke="#000000" stroke-width="0.25" stroke-miterlimit="10" points="280.384,97.225 283.874,100.071 
		284.817,97.834 284.853,97.75 283.061,94.833 269.021,92.925 268.266,109.95 283.658,109.95 286.759,108.183 	"/>
	<polygon fill="#BCBEC0" stroke="#000000" stroke-width="0.25" stroke-miterlimit="10" points="287.308,123.819 290.909,115.317 
		286.759,108.183 283.658,109.95 268.265,109.95 267.767,121.196 265.172,123.762 265.172,129.77 274.378,140.368 279.31,142.171 
		288.072,140.943 282.519,135.127 	"/>
	<polygon fill="#BCBEC0" stroke="#000000" stroke-width="0.25" stroke-miterlimit="10" points="275.928,164.762 281.294,163.948 
		275.928,156.387 279.31,142.171 274.38,140.368 260.466,140.765 259.339,149.599 254.668,157.354 250.234,159.381 251.232,160.712 
		256.494,160.673 257.352,163.635 260.663,163.527 261.326,161.166 264.654,161.166 264.654,166.533 277.055,172.654 
		278.183,170.399 274.961,169.11 	"/>
	<polygon fill="#BCBEC0" stroke="#000000" stroke-width="0.25" stroke-miterlimit="10" points="265.172,129.77 253.487,135.289 
		252.414,139.584 255.419,143.825 255.436,143.825 260.076,143.825 260.466,140.765 274.38,140.368 	"/>
	<polygon fill="#BCBEC0" stroke="#000000" stroke-width="0.25" stroke-miterlimit="10" points="232.693,138.19 233.573,137.936 
		235.618,128 231.263,129.604 	"/>
	<polygon fill="#BCBEC0" stroke="#000000" stroke-width="0.25" stroke-miterlimit="10" points="230.598,138.794 232.693,138.19 
		231.263,129.604 229.221,130.35 	"/>
	<polygon fill="#BCBEC0" stroke="#000000" stroke-width="0.25" stroke-miterlimit="10" points="202.575,127.987 202.571,128.103 
		204.831,130.542 207.257,127.987 	"/>
	<g id="united_x5F_states">
		<polygon fill="#BCBEC0" stroke="#000000" stroke-width="0.25" stroke-miterlimit="10" points="56.406,46.008 54.528,46.008 
			52.694,43.906 68.487,30.279 68.485,30.279 64.835,28.775 45.722,28.883 37.992,31.997 37.992,35.433 29.296,35.326 
			27.646,37.629 34.985,37.365 25.537,40.909 20.972,47.094 24.893,47.029 17.376,51.968 20.124,52.183 34.513,45.312 
			51.119,44.732 56.165,49.779 58.071,47.727 		"/>
		<path fill="#BCBEC0" stroke="#000000" stroke-width="0.25" stroke-miterlimit="10" d="M131.298,67l-3.221,2.792h-7.462
			l-2.305,1.582h1.782l-2.481,1.692h-1.768l2.467-1.692h-3.331h-1.534l-2.119,1.64l-2.147,0.215l0.429-3.705h-1.657l-1.94,1.289
			l-3.603,5.315h-2.115l4.074-6.604l4.811-1.029l-0.268-0.903l-3.167-0.108l-1.504-0.913l-1.878,0.913h-2.202l0.906-1.945
			l-4.556-2.082H57.695L44.917,76.932v10.362l4.666,4.667l16.324,2.098l2.177,3.302l4.59-0.161l3.788,7.437l7.058-8.858
			l16.776,0.053l1.111,8.387l2.66,0.069l0.068-10.441l27.165-23.22l1.853-0.32L134.197,67H131.298z M108.333,76.127l2.521-1.719
			h3.032l-2.505,1.719H108.333z"/>
	</g>
	<g id="canada">
		<polygon fill="#BCBEC0" stroke="#000000" stroke-width="0.25" stroke-miterlimit="10" points="53.36,60.092 52.232,61.059 
			54.066,63.457 55.991,63.457 55.991,62.24 		"/>
		<g id="canada_1_">
			<polygon fill="#BCBEC0" stroke="#000000" stroke-width="0.25" stroke-miterlimit="10" points="147.365,65.565 156.837,65.565 
				154.868,62.427 153.086,62.002 153.086,59.751 			"/>
			<polygon fill="#BCBEC0" stroke="#000000" stroke-width="0.25" stroke-miterlimit="10" points="151.511,40.265 151.511,35.594 
				155.111,36.875 157.182,35.494 156.013,33.309 153.934,32.551 153.838,29.247 142.304,24.534 140.578,24.516 136.57,27.81 
				137.908,24.496 135.969,24.481 131.298,29.446 142.653,28.829 149.578,35.03 144.92,34.95 142.572,36.875 137.279,36.875 
				137.279,38.387 142.653,38.387 147.196,42.15 148.438,41.608 147.365,39.218 150.493,40.708 			"/>
			<polygon fill="#BCBEC0" stroke="#000000" stroke-width="0.25" stroke-miterlimit="10" points="101.066,65.538 101.066,65.538 
				108.79,63.899 109.757,67.322 111.319,68.474 113.944,68.289 114.979,71.374 118.31,71.374 120.615,69.792 128.077,69.792 
				131.298,67 134.197,67 133.15,70.304 138.304,69.416 134.922,71.026 135.244,72.423 144.424,69.198 139.94,68.985 
				137.846,67.102 139.915,63.892 138.911,62.928 132.419,65.873 132.419,64.182 138.626,61.202 148.585,60.773 156.064,56.792 
				156.101,54.975 150.647,54.031 149.991,45.121 142.863,47.927 142.908,43.735 139.472,40.809 134.804,40.809 122.168,59.184 
				119.112,59.194 119.166,53.149 108.291,47.244 119.166,39.191 125.339,38.065 124.05,36.157 133.553,35.11 137.418,31.084 
				133.794,30.682 128.802,33.983 129.365,31.165 127.03,30.923 126.484,27.518 122.44,29.312 123.487,31.487 118.091,34.063 
				108.669,32.292 103.693,34.627 91.597,29.796 68.487,30.279 52.694,43.906 54.528,46.008 56.406,46.008 58.071,47.727 
				56.165,49.779 54.232,58.625 57.695,61.766 57.695,63.457 96.51,63.457 			"/>
			<polygon fill="#BCBEC0" stroke="#000000" stroke-width="0.25" stroke-miterlimit="10" points="131.8,39.901 132.419,38.387 
				128.91,36.875 125.953,39.282 			"/>
			<polygon fill="#BCBEC0" stroke="#000000" stroke-width="0.25" stroke-miterlimit="10" points="121.344,30.752 120.519,29.446 
				117.491,30.752 118.575,32.159 			"/>
			<polygon fill="#BCBEC0" stroke="#000000" stroke-width="0.25" stroke-miterlimit="10" points="125.125,26.548 126.114,23.906 
				119.579,26.026 121.344,27.81 			"/>
			<polygon fill="#BCBEC0" stroke="#000000" stroke-width="0.25" stroke-miterlimit="10" points="132.419,25.286 131.378,23.906 
				126.789,24.964 127.271,26.655 			"/>
			<polygon fill="#BCBEC0" stroke="#000000" stroke-width="0.25" stroke-miterlimit="10" points="148.37,21.461 139.915,21.461 
				137.096,20.293 134.358,22.628 145.471,23.503 			"/>
			<polygon fill="#BCBEC0" stroke="#000000" stroke-width="0.25" stroke-miterlimit="10" points="147.323,19.407 141.364,19.407 
				142.25,20.293 148.773,20.293 149.82,21.179 159.322,16.75 166.972,15.22 172.771,11.947 149.739,13.655 149.739,14.898 
				157.51,14.737 156.423,16.187 148.37,16.347 149.417,18.2 145.954,17.636 			"/>
			<polygon fill="#BCBEC0" stroke="#000000" stroke-width="0.25" stroke-miterlimit="10" points="145.535,15.8 143.764,14.471 
				138.793,16.564 143.075,17.375 			"/>
			<polygon fill="#BCBEC0" stroke="#000000" stroke-width="0.25" stroke-miterlimit="10" points="101.236,23.306 91.71,25.733 
				93.479,27.81 103.564,24.381 			"/>
			<polygon fill="#BCBEC0" stroke="#000000" stroke-width="0.25" stroke-miterlimit="10" points="112.945,28.741 115.622,25.281 
				112.938,25.281 111.327,27.363 110.683,25.281 107.84,26.383 104.862,25.007 99.429,26.854 102.63,28.202 97.637,29.474 
				103.838,31.89 108.106,30.037 112.857,31.165 116.423,30.348 			"/>
		</g>
	</g>
	<polygon fill="#BCBEC0" stroke="#000000" stroke-width="0.25" stroke-miterlimit="10" points="103.06,108.231 98.684,108.231 
		96.993,109.841 101.935,109.841 105.932,112.499 104.412,114.19 111.327,114.19 	"/>
	<polygon fill="#BCBEC0" stroke="#000000" stroke-width="0.25" stroke-miterlimit="10" points="106.898,116.042 103.918,116.042 
		103.918,117.25 104.965,118.136 107.945,118.136 107.945,117.089 	"/>
	<polygon fill="#BCBEC0" stroke="#000000" stroke-width="0.25" stroke-miterlimit="10" points="123.326,117.439 123.94,116.432 
		122.271,116.432 121.665,117.439 	"/>
	<polygon fill="#BCBEC0" stroke="#000000" stroke-width="0.25" stroke-miterlimit="10" points="87.49,117.658 85.075,117.658 
		85.477,120.753 82.659,120.753 81.321,123.128 85.311,125.143 88.014,120.255 	"/>
	<polygon fill="#BCBEC0" stroke="#000000" stroke-width="0.25" stroke-miterlimit="10" points="87.492,121.24 86.167,123.613 
		88.618,124.699 88.133,126.409 88.859,126.735 95.524,121.159 	"/>
	<polygon fill="#BCBEC0" stroke="#000000" stroke-width="0.25" stroke-miterlimit="10" points="86.167,123.613 85.311,125.143 
		88.133,126.409 88.618,124.699 	"/>
	<polygon fill="#BCBEC0" stroke="#000000" stroke-width="0.25" stroke-miterlimit="10" points="88.014,120.255 88.014,120.255 
		90.631,115.317 87.49,117.658 	"/>
	<polygon fill="#BCBEC0" stroke="#000000" stroke-width="0.25" stroke-miterlimit="10" points="95.524,121.159 88.859,126.735 
		91.395,130.161 95.74,130.62 	"/>
	<polygon fill="#BCBEC0" stroke="#000000" stroke-width="0.25" stroke-miterlimit="10" points="101.83,146.726 98.765,150.589 
		98.395,156.505 101.949,158.196 108.287,150.417 	"/>
	<polygon fill="#BCBEC0" stroke="#000000" stroke-width="0.25" stroke-miterlimit="10" points="114.387,137.382 111.945,134.667 
		111.46,128.964 109.735,128.949 106.15,133.805 104.321,133.919 104.839,135.677 103.882,137.045 104.62,139.495 103.918,144.093 
		101.83,146.726 116.589,155.16 116.589,145.705 120.024,145.469 120.024,137.96 	"/>
	<g id="argentina">
		<polygon fill="#BCBEC0" stroke="#000000" stroke-width="0.25" stroke-miterlimit="10" points="134.896,243.76 137.1,245.783 
			143.884,246.03 136.564,242.212 		"/>
		<polygon fill="#BCBEC0" stroke="#000000" stroke-width="0.25" stroke-miterlimit="10" points="145.578,216.246 140.636,209.374 
			140.64,201.804 145.451,196.86 145.32,195.012 142.357,196.812 138.385,196.812 138.385,193.27 130.254,187.769 129.794,188.612 
			123.011,188.612 121.192,205.51 125.017,222.26 128.479,228.418 128.641,233.042 133.775,240.909 135.646,241.104 134.68,220.971 
					"/>
	</g>
	<polygon fill="#BCBEC0" stroke="#000000" stroke-width="0.25" stroke-miterlimit="10" points="140.64,201.804 140.636,209.374 
		146.524,211.534 148.878,207.435 	"/>
	<polygon fill="#BCBEC0" stroke="#000000" stroke-width="0.25" stroke-miterlimit="10" points="131.773,133.86 130.117,132.282 
		123.567,131.638 119.917,129.039 111.46,128.964 111.945,134.667 114.387,137.382 120.024,137.96 120.024,145.469 120.924,145.407 
		122.065,147.959 125.715,146.778 125.424,142.815 130.318,141.023 	"/>
	<polygon fill="#BCBEC0" stroke="#000000" stroke-width="0.25" stroke-miterlimit="10" points="95.771,131.969 95.74,130.62 
		91.395,130.161 94.288,134.07 95.332,134.443 96.798,132.537 	"/>
	<polygon fill="#BCBEC0" stroke="#000000" stroke-width="0.25" stroke-miterlimit="10" points="137.046,145.805 135.38,141.521 
		136.881,138.725 131.773,133.86 130.318,141.023 132.451,140.242 132.157,146.349 	"/>
	<polygon fill="#BCBEC0" stroke="#000000" stroke-width="0.25" stroke-miterlimit="10" points="137.421,179.918 128.721,172.813 
		124.237,168.214 119.247,169.615 119.247,181.029 123.011,188.612 129.794,188.612 132.433,183.766 137.539,183.744 	"/>
	<polygon fill="#BCBEC0" stroke="#000000" stroke-width="0.25" stroke-miterlimit="10" points="144.398,139.369 141.661,139.135 
		141.436,145.317 144.72,144.952 145.691,142.198 	"/>
	<polygon fill="#BCBEC0" stroke="#000000" stroke-width="0.25" stroke-miterlimit="10" points="145.121,192.207 137.677,188.237 
		137.539,183.744 132.433,183.766 130.254,187.769 138.385,193.27 138.385,196.812 142.357,196.812 145.32,195.012 	"/>
	<polygon fill="#BCBEC0" stroke="#000000" stroke-width="0.25" stroke-miterlimit="10" points="136.881,138.725 135.38,141.521 
		137.046,145.805 141.436,145.317 141.661,139.135 	"/>
	<polygon fill="#BCBEC0" stroke="#000000" stroke-width="0.25" stroke-miterlimit="10" points="165.442,154.615 157.39,154.132 
		157.6,151.928 153.884,150.325 150.163,152.504 151.373,149.241 148.901,148.174 145.386,150.871 147.94,147.112 145.691,142.198 
		144.72,144.952 132.157,146.349 132.451,140.242 130.318,141.023 125.424,142.815 125.715,146.778 122.065,147.959 
		120.924,145.407 116.589,145.705 116.589,156.87 112.187,157.407 110.253,163.743 117.608,170.075 124.237,168.214 
		128.721,172.813 137.421,179.918 137.677,188.237 145.121,192.207 145.451,196.86 140.64,201.804 148.878,207.435 153.685,199.067 
		154.812,191.819 166.473,186.658 168.644,170.536 173.671,163.957 173.671,159.984 	"/>
	<polygon fill="#BCBEC0" stroke="#000000" stroke-width="0.25" stroke-miterlimit="10" points="104.392,134.034 103.852,132.055 
		99.976,132.401 98.61,133.537 96.798,132.537 95.332,134.443 99.645,135.979 100.694,134.419 103.161,134.656 103.882,137.045 
		104.839,135.677 	"/>
	<polygon fill="#BCBEC0" stroke="#000000" stroke-width="0.25" stroke-miterlimit="10" points="117.608,170.075 110.253,163.743 
		112.187,157.407 116.589,156.87 116.589,155.16 108.287,150.417 101.949,158.196 98.395,156.505 98.281,158.319 109.082,176.714 
		118.414,182.962 119.247,181.029 119.247,169.615 	"/>
	<polygon fill="#BCBEC0" stroke="#000000" stroke-width="0.25" stroke-miterlimit="10" points="128.641,233.042 128.479,228.418 
		125.017,222.26 121.192,205.51 123.011,188.612 119.247,181.029 118.414,182.962 119.975,221.208 124.113,224.552 124.303,231.412 
		131.459,240.671 133.775,240.909 	"/>
	<polygon fill="#BCBEC0" stroke="#000000" stroke-width="0.25" stroke-miterlimit="10" points="116.783,116.042 119.385,116.042 
		120.024,115.096 115.152,114.565 115.152,117.25 	"/>
	<g id="haiti">
		<polygon fill="#BCBEC0" stroke="#000000" stroke-width="0.25" stroke-miterlimit="10" points="112.107,114.565 113.099,115.961 
			111.327,115.961 111.327,116.588 115.152,116.588 115.152,114.565 		"/>
	</g>
</g>
</svg>
